<svg width="887" height="501" viewBox="0 0 887 501" fill="none" xmlns="http://www.w3.org/2000/svg">
<g clip-path="url(#clip0_31_334)">
<rect width="887" height="501" fill="#010409"/>
<path d="M333.878 357.333C307.287 376.899 275.065 387.306 242.053 386.993C209.041 386.68 177.023 375.663 150.808 355.596C124.592 335.53 105.597 307.499 96.6748 275.714C87.7527 243.929 89.3859 210.108 101.329 179.33C113.272 148.553 134.88 122.483 162.907 105.036C190.933 87.5889 223.865 79.7079 256.753 82.577C289.642 85.446 320.711 98.9101 345.293 120.946C369.875 142.983 386.643 172.401 393.076 204.781L320.181 219.265C316.882 202.665 308.287 187.583 295.684 176.286C283.082 164.989 267.155 158.087 250.294 156.616C233.434 155.145 216.552 159.186 202.184 168.13C187.816 177.074 176.738 190.439 170.616 206.217C164.493 221.995 163.656 239.334 168.23 255.629C172.804 271.923 182.542 286.293 195.981 296.58C209.42 306.867 225.835 312.515 242.758 312.676C259.682 312.837 276.201 307.501 289.833 297.471L333.878 357.333Z" fill="#BB86FC"/>
<path d="M328.28 277.232C328.28 279.216 328.472 281.168 328.856 283.088C329.24 284.944 329.88 286.64 330.776 288.176C331.736 289.648 332.984 290.832 334.52 291.728C336.056 292.624 337.976 293.072 340.28 293.072C342.584 293.072 344.504 292.624 346.04 291.728C347.64 290.832 348.888 289.648 349.784 288.176C350.744 286.64 351.416 284.944 351.8 283.088C352.184 281.168 352.376 279.216 352.376 277.232C352.376 275.248 352.184 273.296 351.8 271.376C351.416 269.456 350.744 267.76 349.784 266.288C348.888 264.816 347.64 263.632 346.04 262.736C344.504 261.776 342.584 261.296 340.28 261.296C337.976 261.296 336.056 261.776 334.52 262.736C332.984 263.632 331.736 264.816 330.776 266.288C329.88 267.76 329.24 269.456 328.856 271.376C328.472 273.296 328.28 275.248 328.28 277.232ZM314.648 277.232C314.648 273.264 315.256 269.68 316.472 266.48C317.688 263.216 319.416 260.464 321.656 258.224C323.896 255.92 326.584 254.16 329.72 252.944C332.856 251.664 336.376 251.024 340.28 251.024C344.184 251.024 347.704 251.664 350.84 252.944C354.04 254.16 356.76 255.92 359 258.224C361.24 260.464 362.968 263.216 364.184 266.48C365.4 269.68 366.008 273.264 366.008 277.232C366.008 281.2 365.4 284.784 364.184 287.984C362.968 291.184 361.24 293.936 359 296.24C356.76 298.48 354.04 300.208 350.84 301.424C347.704 302.64 344.184 303.248 340.28 303.248C336.376 303.248 332.856 302.64 329.72 301.424C326.584 300.208 323.896 298.48 321.656 296.24C319.416 293.936 317.688 291.184 316.472 287.984C315.256 284.784 314.648 281.2 314.648 277.232ZM410.104 277.04C410.104 274.992 409.912 273.04 409.528 271.184C409.144 269.264 408.472 267.6 407.512 266.192C406.616 264.72 405.432 263.536 403.96 262.64C402.488 261.744 400.632 261.296 398.392 261.296C396.152 261.296 394.264 261.744 392.728 262.64C391.192 263.536 389.944 264.72 388.984 266.192C388.088 267.664 387.416 269.36 386.968 271.28C386.584 273.136 386.392 275.088 386.392 277.136C386.392 279.056 386.616 280.976 387.064 282.896C387.512 284.816 388.216 286.544 389.176 288.08C390.2 289.552 391.448 290.768 392.92 291.728C394.456 292.624 396.28 293.072 398.392 293.072C400.632 293.072 402.488 292.624 403.96 291.728C405.496 290.832 406.712 289.648 407.608 288.176C408.504 286.64 409.144 284.912 409.528 282.992C409.912 281.072 410.104 279.088 410.104 277.04ZM410.296 295.664H410.104C408.504 298.352 406.392 300.304 403.768 301.52C401.208 302.672 398.296 303.248 395.031 303.248C391.32 303.248 388.056 302.544 385.24 301.136C382.424 299.664 380.088 297.712 378.232 295.28C376.44 292.784 375.064 289.936 374.104 286.736C373.208 283.536 372.76 280.208 372.76 276.752C372.76 273.424 373.208 270.224 374.104 267.152C375.064 264.016 376.44 261.264 378.232 258.896C380.088 256.528 382.392 254.64 385.144 253.232C387.896 251.76 391.096 251.024 394.744 251.024C397.688 251.024 400.472 251.664 403.096 252.944C405.784 254.16 407.896 255.984 409.432 258.416H409.624V233.456H423.256V302H410.296V295.664ZM466.967 271.856C466.327 268.4 465.175 265.776 463.511 263.984C461.911 262.192 459.447 261.296 456.119 261.296C453.943 261.296 452.119 261.68 450.647 262.448C449.239 263.152 448.087 264.048 447.191 265.136C446.359 266.224 445.751 267.376 445.367 268.592C445.047 269.808 444.855 270.896 444.791 271.856H466.967ZM444.791 280.496C444.983 284.912 446.103 288.112 448.151 290.096C450.199 292.08 453.143 293.072 456.983 293.072C459.735 293.072 462.103 292.4 464.087 291.056C466.071 289.648 467.287 288.176 467.735 286.64H479.735C477.815 292.592 474.871 296.848 470.903 299.408C466.935 301.968 462.135 303.248 456.503 303.248C452.599 303.248 449.079 302.64 445.943 301.424C442.807 300.144 440.151 298.352 437.975 296.048C435.799 293.744 434.103 290.992 432.887 287.792C431.735 284.592 431.159 281.072 431.159 277.232C431.159 273.52 431.767 270.064 432.983 266.864C434.199 263.664 435.927 260.912 438.167 258.608C440.407 256.24 443.063 254.384 446.135 253.04C449.271 251.696 452.727 251.024 456.503 251.024C460.727 251.024 464.407 251.856 467.543 253.52C470.679 255.12 473.239 257.296 475.223 260.048C477.271 262.8 478.743 265.936 479.639 269.456C480.535 272.976 480.855 276.656 480.599 280.496H444.791ZM531.915 261.2H547.179C549.867 261.2 552.075 260.56 553.803 259.28C555.531 258 556.395 255.92 556.395 253.04C556.395 251.44 556.107 250.128 555.531 249.104C554.955 248.08 554.187 247.28 553.227 246.704C552.267 246.128 551.147 245.744 549.867 245.552C548.651 245.296 547.371 245.168 546.027 245.168H531.915V261.2ZM516.843 233.456H549.099C552.363 233.456 555.339 233.744 558.027 234.32C560.715 234.896 563.019 235.856 564.939 237.2C566.859 238.48 568.331 240.208 569.355 242.384C570.443 244.56 570.987 247.248 570.987 250.448C570.987 253.904 570.187 256.784 568.587 259.088C567.051 261.392 564.747 263.28 561.675 264.752C565.899 265.968 569.035 268.112 571.083 271.184C573.195 274.192 574.251 277.84 574.251 282.128C574.251 285.584 573.579 288.592 572.235 291.152C570.891 293.648 569.067 295.696 566.763 297.296C564.523 298.896 561.931 300.08 558.987 300.848C556.107 301.616 553.131 302 550.059 302H516.843V233.456ZM531.915 290.288H548.043C549.515 290.288 550.923 290.16 552.267 289.904C553.611 289.584 554.795 289.104 555.819 288.464C556.843 287.76 557.643 286.832 558.219 285.68C558.859 284.528 559.179 283.056 559.179 281.264C559.179 277.744 558.187 275.248 556.203 273.776C554.219 272.24 551.595 271.472 548.331 271.472H531.915V290.288ZM582.421 267.632C582.613 264.432 583.413 261.776 584.821 259.664C586.229 257.552 588.021 255.856 590.197 254.576C592.373 253.296 594.805 252.4 597.493 251.888C600.245 251.312 602.997 251.024 605.749 251.024C608.245 251.024 610.773 251.216 613.333 251.6C615.893 251.92 618.229 252.592 620.341 253.616C622.453 254.64 624.181 256.08 625.525 257.936C626.869 259.728 627.541 262.128 627.541 265.136V290.96C627.541 293.2 627.669 295.344 627.925 297.392C628.181 299.44 628.629 300.976 629.269 302H615.445C615.189 301.232 614.965 300.464 614.773 299.696C614.645 298.864 614.549 298.032 614.485 297.2C612.309 299.44 609.749 301.008 606.805 301.904C603.861 302.8 600.853 303.248 597.781 303.248C595.413 303.248 593.205 302.96 591.157 302.384C589.109 301.808 587.317 300.912 585.781 299.696C584.245 298.48 583.029 296.944 582.133 295.088C581.301 293.232 580.885 291.024 580.885 288.464C580.885 285.648 581.365 283.344 582.325 281.552C583.349 279.696 584.629 278.224 586.165 277.136C587.765 276.048 589.557 275.248 591.541 274.736C593.589 274.16 595.637 273.712 597.685 273.392C599.733 273.072 601.749 272.816 603.733 272.624C605.717 272.432 607.477 272.144 609.013 271.76C610.549 271.376 611.765 270.832 612.661 270.128C613.557 269.36 613.973 268.272 613.909 266.864C613.909 265.392 613.653 264.24 613.141 263.408C612.693 262.512 612.053 261.84 611.221 261.392C610.453 260.88 609.525 260.56 608.437 260.432C607.413 260.24 606.293 260.144 605.077 260.144C602.389 260.144 600.277 260.72 598.741 261.872C597.205 263.024 596.309 264.944 596.053 267.632H582.421ZM613.909 277.712C613.333 278.224 612.597 278.64 611.701 278.96C610.869 279.216 609.941 279.44 608.917 279.632C607.957 279.824 606.933 279.984 605.845 280.112C604.757 280.24 603.669 280.4 602.581 280.592C601.557 280.784 600.533 281.04 599.509 281.36C598.549 281.68 597.685 282.128 596.917 282.704C596.213 283.216 595.637 283.888 595.189 284.72C594.741 285.552 594.517 286.608 594.517 287.888C594.517 289.104 594.741 290.128 595.189 290.96C595.637 291.792 596.245 292.464 597.013 292.976C597.781 293.424 598.677 293.744 599.701 293.936C600.725 294.128 601.781 294.224 602.869 294.224C605.557 294.224 607.637 293.776 609.109 292.88C610.581 291.984 611.669 290.928 612.373 289.712C613.077 288.432 613.493 287.152 613.621 285.872C613.813 284.592 613.909 283.568 613.909 282.8V277.712ZM655.402 252.368H665.386V261.488H655.402V286.064C655.402 288.368 655.786 289.904 656.554 290.672C657.322 291.44 658.858 291.824 661.161 291.824C661.93 291.824 662.666 291.792 663.37 291.728C664.074 291.664 664.746 291.568 665.386 291.44V302C664.234 302.192 662.954 302.32 661.546 302.384C660.138 302.448 658.762 302.48 657.418 302.48C655.306 302.48 653.29 302.32 651.37 302C649.514 301.744 647.85 301.2 646.378 300.368C644.97 299.536 643.85 298.352 643.018 296.816C642.186 295.28 641.77 293.264 641.77 290.768V261.488H633.514V252.368H641.77V237.488H655.402V252.368ZM689.152 252.368H699.136V261.488H689.152V286.064C689.152 288.368 689.536 289.904 690.304 290.672C691.072 291.44 692.608 291.824 694.911 291.824C695.68 291.824 696.416 291.792 697.12 291.728C697.824 291.664 698.496 291.568 699.136 291.44V302C697.984 302.192 696.704 302.32 695.296 302.384C693.888 302.448 692.512 302.48 691.168 302.48C689.056 302.48 687.04 302.32 685.12 302C683.264 301.744 681.6 301.2 680.128 300.368C678.72 299.536 677.6 298.352 676.768 296.816C675.936 295.28 675.52 293.264 675.52 290.768V261.488H667.264V252.368H675.52V237.488H689.152V252.368ZM706.006 233.456H719.638V302H706.006V233.456ZM763.78 271.856C763.14 268.4 761.988 265.776 760.324 263.984C758.724 262.192 756.26 261.296 752.932 261.296C750.756 261.296 748.932 261.68 747.46 262.448C746.052 263.152 744.9 264.048 744.004 265.136C743.172 266.224 742.564 267.376 742.18 268.592C741.86 269.808 741.668 270.896 741.604 271.856H763.78ZM741.604 280.496C741.796 284.912 742.916 288.112 744.964 290.096C747.012 292.08 749.956 293.072 753.796 293.072C756.548 293.072 758.916 292.4 760.9 291.056C762.884 289.648 764.1 288.176 764.548 286.64H776.548C774.628 292.592 771.684 296.848 767.716 299.408C763.748 301.968 758.948 303.248 753.316 303.248C749.412 303.248 745.892 302.64 742.756 301.424C739.62 300.144 736.964 298.352 734.788 296.048C732.612 293.744 730.916 290.992 729.7 287.792C728.548 284.592 727.972 281.072 727.972 277.232C727.972 273.52 728.58 270.064 729.796 266.864C731.012 263.664 732.74 260.912 734.98 258.608C737.22 256.24 739.876 254.384 742.948 253.04C746.084 251.696 749.54 251.024 753.316 251.024C757.54 251.024 761.22 251.856 764.356 253.52C767.492 255.12 770.052 257.296 772.036 260.048C774.084 262.8 775.556 265.936 776.452 269.456C777.348 272.976 777.668 276.656 777.412 280.496H741.604Z" fill="white"/>
</g>
<defs>
<clipPath id="clip0_31_334">
<rect width="887" height="501" fill="white"/>
</clipPath>
</defs>
</svg>
