<svg width="142" height="142" viewBox="0 0 142 142" fill="none" xmlns="http://www.w3.org/2000/svg">
<path d="M71.0001 0.166626C31.9001 0.166626 0.166748 31.9 0.166748 71C0.166748 110.1 31.9001 141.833 71.0001 141.833C110.1 141.833 141.833 110.1 141.833 71C141.833 31.9 110.1 0.166626 71.0001 0.166626ZM71.0001 21.4166C82.7584 21.4166 92.2501 30.9083 92.2501 42.6666C92.2501 54.425 82.7584 63.9166 71.0001 63.9166C59.2417 63.9166 49.7501 54.425 49.7501 42.6666C49.7501 30.9083 59.2417 21.4166 71.0001 21.4166ZM71.0001 122C53.2917 122 37.6376 112.933 28.5001 99.1916C28.7126 85.0958 56.8334 77.375 71.0001 77.375C85.0959 77.375 113.288 85.0958 113.5 99.1916C104.363 112.933 88.7084 122 71.0001 122Z" fill="white"/>
</svg>
